<svg width="960" height="960" viewBox="0 0 960 960" fill="none" xmlns="http://www.w3.org/2000/svg">
<g clip-path="url(#clip0_435_1383)">
<path fill-rule="evenodd" clip-rule="evenodd" d="M422.785 758.628C448.155 767.045 474.018 773.899 500.228 779.151C542.857 787.762 577.515 790.7 592.974 791.343C695.072 795.565 849.735 743.786 849.735 743.786C849.735 743.786 641.183 678.074 641.183 675.11C641.183 671.933 826.619 631.263 826.619 631.263C826.619 631.263 654.521 575.263 654.386 573.938C654.296 572.95 752.128 539.864 752.128 539.864C752.128 539.864 672.618 461.668 620.705 384.797C586.294 333.827 546.645 288.324 482.445 272.168C477.373 270.881 472.138 269.788 466.738 268.89C462.048 268.095 457.228 267.461 452.278 266.99C445.904 266.357 439.31 266.002 432.496 265.923C347.429 264.857 202.444 324.663 200.019 487.016L201.355 489.416L304.104 432.339C304.104 432.339 356.411 458.487 362.754 514.723C369.097 570.959 335.012 605.1 335.012 605.1L220.069 594.905L219.869 597.173C256.536 683.138 342 731.6 422.785 758.628ZM621.5 617.617C621.5 617.617 475.3 440.635 423.456 550.906C371.612 661.177 621.5 617.617 621.5 617.617ZM547.019 335.854C546.101 335.015 544.678 335.08 543.84 335.997C543.002 336.914 543.066 338.338 543.983 339.176C577.948 370.207 605.261 407.809 624.27 449.704C624.783 450.836 626.117 451.337 627.249 450.824C628.38 450.31 628.881 448.977 628.368 447.845C609.108 405.395 581.433 367.296 547.019 335.854Z" fill="white" fill-opacity="0.96"/>
<path d="M515.699 165.271C539.478 177.947 482.445 272.163 482.445 272.163C477.37 270.872 472.134 269.779 466.738 268.885C466.74 268.873 466.744 268.861 466.75 268.851C466.75 268.825 466.754 268.798 466.761 268.773C466.76 268.754 466.764 268.735 466.772 268.717C467.86 263.777 492.458 152.866 515.699 165.271Z" fill="white" fill-opacity="0.96"/>
<path d="M455.478 150.999C487.261 148.686 467.636 263.706 466.772 268.714C466.764 268.732 466.76 268.751 466.761 268.77C466.752 268.795 466.749 268.822 466.75 268.848C466.743 268.859 466.739 268.87 466.738 268.882C462.045 268.096 457.225 267.463 452.278 266.982C452.278 266.982 422.987 153.381 455.478 150.999Z" fill="white" fill-opacity="0.96"/>
<path d="M219.87 597.172C256.537 683.137 342.001 731.599 422.786 758.627C448.156 767.044 474.019 773.898 500.229 779.15C542.858 787.761 577.516 790.702 592.975 791.342C695.075 795.564 849.736 743.785 849.736 743.785C849.736 743.785 641.184 678.073 641.184 675.109C641.184 671.932 826.62 631.257 826.62 631.257C826.62 631.257 654.52 575.257 654.387 573.932C654.297 572.944 752.129 539.858 752.129 539.858C752.129 539.858 672.619 461.658 620.706 384.791C586.295 333.821 546.642 288.318 482.446 272.162C477.37 270.871 472.135 269.778 466.739 268.884C462.046 268.098 457.226 267.465 452.279 266.984C445.901 266.355 439.307 265.999 432.497 265.917C347.43 264.851 202.445 324.657 200.02 487.01" stroke="#171717" stroke-width="4.5" stroke-linecap="round" stroke-linejoin="round"/>
<path d="M466.771 268.717C467.86 263.777 492.458 152.866 515.698 165.271C539.477 177.947 482.444 272.163 482.444 272.163" stroke="#171717" stroke-width="4.5" stroke-linecap="round" stroke-linejoin="round"/>
<path d="M466.738 268.884C466.74 268.872 466.744 268.861 466.75 268.85C466.749 268.824 466.753 268.798 466.761 268.772" stroke="#171717" stroke-width="4.5" stroke-linecap="round" stroke-linejoin="round"/>
<path d="M466.761 268.772C466.753 268.798 466.75 268.824 466.75 268.85" stroke="#171717" stroke-width="4.5" stroke-linecap="round" stroke-linejoin="round"/>
<path d="M466.762 268.773C466.761 268.754 466.765 268.734 466.773 268.717" stroke="#171717" stroke-width="4.5" stroke-linecap="round" stroke-linejoin="round"/>
<path d="M452.278 266.987C452.278 266.987 422.987 153.381 455.478 150.999C487.261 148.686 467.636 263.706 466.772 268.714" stroke="#171717" stroke-width="4.5" stroke-linecap="round" stroke-linejoin="round"/>
<path d="M621.499 617.617C621.499 617.617 371.609 661.178 423.455 550.906C475.301 440.634 621.499 617.617 621.499 617.617Z" stroke="#171717" stroke-width="4.5" stroke-linecap="round" stroke-linejoin="round"/>
<path d="M220.071 594.905L335.012 605.1C335.012 605.1 369.097 570.959 362.754 514.723C356.411 458.487 304.104 432.339 304.104 432.339L201.355 489.416L40.2002 578.951L220.071 594.905Z" stroke="#171717" stroke-width="4.5" stroke-linecap="round" stroke-linejoin="round"/>
<path d="M300.938 518.719C300.938 518.719 227.238 564.682 40.2031 578.951" stroke="#171717" stroke-width="4.5" stroke-linecap="round" stroke-linejoin="round"/>
<path d="M422.785 758.628L428.533 839.675L416.385 872.963" stroke="#171717" stroke-width="4.5" stroke-linecap="round" stroke-linejoin="round"/>
<path d="M500.229 779.139V779.151V876.14L512.006 908.631" stroke="#171717" stroke-width="4.5" stroke-linecap="round" stroke-linejoin="round"/>
<path d="M453.883 887.233L500.228 876.14L483.208 914.963" stroke="#171717" stroke-width="4.5" stroke-linecap="round" stroke-linejoin="round"/>
<path d="M390.485 862.668L428.533 839.675H385.736" stroke="#171717" stroke-width="4.5" stroke-linecap="round" stroke-linejoin="round"/>
<path d="M280.338 382.412C280.338 382.412 286.67 354.94 306.755 358.633C326.84 362.326 320.486 390.338 320.486 390.338" stroke="#171717" stroke-width="4.5" stroke-linecap="round" stroke-linejoin="round"/>
<path d="M352.717 401.958C352.717 401.958 357.994 365.695 379.134 374.317C400.274 382.939 387.061 417.283 387.061 417.283" stroke="#171717" stroke-width="4.5" stroke-linecap="round" stroke-linejoin="round"/>
<path d="M534.027 624.932C538.886 596.902 539.435 568.294 535.657 540.099" stroke="#171717" stroke-width="4.5" stroke-linecap="round" stroke-linejoin="round"/>
<path d="M498.93 624.1C504.606 590.861 505.788 557.009 502.443 523.455" stroke="#171717" stroke-width="4.5" stroke-linecap="round" stroke-linejoin="round"/>
<path d="M462.709 618.587C467.131 584.671 467.734 550.365 464.509 516.313" stroke="#171717" stroke-width="4.5" stroke-linecap="round" stroke-linejoin="round"/>
<path d="M491.311 733.083L510.211 741.283" stroke="#171717" stroke-width="4.5" stroke-linecap="round" stroke-linejoin="round"/>
<path d="M440.445 673.199L458.755 682.546" stroke="#171717" stroke-width="4.5" stroke-linecap="round" stroke-linejoin="round"/>
<path d="M377.811 708.919C383.597 710.404 389 713.106 393.661 716.844" stroke="#171717" stroke-width="4.5" stroke-linecap="round" stroke-linejoin="round"/>
<path d="M354.062 657.362L364.355 663.718" stroke="#171717" stroke-width="4.5" stroke-linecap="round" stroke-linejoin="round"/>
<path d="M435.742 708.745L444.437 712.756" stroke="#171717" stroke-width="4.5" stroke-linecap="round" stroke-linejoin="round"/>
<path d="M541.166 725.411C546.194 728.838 551.71 731.488 557.528 733.272" stroke="#171717" stroke-width="4.5" stroke-linecap="round" stroke-linejoin="round"/>
<path d="M381.771 187.459L388.904 159.722" stroke="#171717" stroke-width="4.5" stroke-linecap="round" stroke-linejoin="round"/>
<path d="M347.145 196.857L277.359 45.5127" stroke="#171717" stroke-width="4.5" stroke-linecap="round" stroke-linejoin="round"/>
<path d="M311.741 221.111L286.125 200.627" stroke="#171717" stroke-width="4.5" stroke-linecap="round" stroke-linejoin="round"/>
<path d="M232.967 223.822C227.887 213.585 220.479 204.68 211.337 197.822" stroke="#171717" stroke-width="4.5" stroke-linecap="round" stroke-linejoin="round"/>
<path d="M211.31 221.476L229.532 197.699" stroke="#171717" stroke-width="4.5" stroke-linecap="round" stroke-linejoin="round"/>
<path d="M131.453 468.543L107.077 439.062" stroke="#171717" stroke-width="4.5" stroke-linecap="round" stroke-linejoin="round"/>
<path d="M105.477 463.339L128.019 437.594" stroke="#171717" stroke-width="4.5" stroke-linecap="round" stroke-linejoin="round"/>
<path d="M290.546 755.057C275.695 747.193 262.542 736.475 251.841 723.518C241.141 710.56 233.102 695.619 228.188 679.549" stroke="#171717" stroke-width="4.5" stroke-linecap="round" stroke-linejoin="round"/>
<path d="M107.8 657.608C93.5781 671.697 87.2621 692.639 88.7471 712.608C90.2321 732.577 98.9471 751.534 111.056 767.476C122.763 782.889 138.632 796.276 157.646 799.894C168.905 802.038 182.911 799.064 187.179 788.428C191.233 778.328 182.949 766.012 172.22 764.174C161.491 762.336 150.508 769.461 145.828 779.289C141.148 789.117 141.983 800.889 145.868 811.056C151.147 824.698 161.356 835.859 174.475 842.329C189.275 849.547 206.323 850.113 222.265 854.224C238.207 858.335 254.809 868.124 258.255 884.224" stroke="#171717" stroke-width="4.5" stroke-linecap="round" stroke-linejoin="round"/>
<path d="M829.69 363.937C807.296 398.971 799.077 441.216 806.701 482.091C810.773 503.391 820.972 525.768 840.876 534.38C859.938 542.627 884.614 534.134 894.562 515.903C898.662 508.389 900.378 499.324 897.962 491.112C895.546 482.9 888.568 475.867 880.1 474.612C871.021 473.268 861.792 478.77 857.124 486.671C852.456 494.572 851.845 504.371 853.69 513.362C855.678 522.522 859.98 531.019 866.185 538.045C872.39 545.07 880.292 550.388 889.136 553.492C898.556 556.679 909.6 557.698 916.049 565.268C924.657 575.368 919.006 592.532 907.417 599.005C895.828 605.478 881.139 603.365 869.089 597.797" stroke="#171717" stroke-width="4.5" stroke-linecap="round" stroke-linejoin="round"/>
<path d="M895.047 764.105L918.325 734.939" stroke="#171717" stroke-width="4.5" stroke-linecap="round" stroke-linejoin="round"/>
<path d="M915.162 761.551C905.752 755.658 897.929 747.55 892.377 737.935" stroke="#171717" stroke-width="4.5" stroke-linecap="round" stroke-linejoin="round"/>
<path d="M692.775 424.077C679.548 412.963 668.316 399.672 659.562 384.777" stroke="#171717" stroke-width="4.5" stroke-linecap="round" stroke-linejoin="round"/>
<path d="M767.77 666.737L804.689 657.5" stroke="#171717" stroke-width="4.5" stroke-linecap="round" stroke-linejoin="round"/>
<path d="M726.127 797.388L764.168 791.456" stroke="#171717" stroke-width="4.5" stroke-linecap="round" stroke-linejoin="round"/>
<g opacity="0.1">
<path d="M49.7218 581.85C57.8848 585.902 67.1408 586.313 76.1058 586.726C85.3438 587.151 94.5778 587.71 103.818 588.071C122.294 588.793 140.754 589.783 159.218 590.74C196.14 592.654 233.018 595.228 269.852 598.462C280.375 599.399 290.893 600.391 301.405 601.439C306.333 601.929 311.259 602.432 316.185 602.948C321.685 603.524 328.293 605.293 333.555 603.297C341.403 600.321 343.308 590.233 335.889 585.436C331.498 582.596 326.181 582.736 321.11 582.236C316.51 581.784 311.912 581.342 307.317 580.911C298.121 580.049 288.921 579.228 279.717 578.45C260.978 576.865 242.226 575.447 223.461 574.195C186.251 571.699 149.01 569.987 111.737 569.057C101.509 568.816 91.2878 568.766 81.0568 568.79C70.5148 568.814 59.4888 568.357 49.7238 572.866C46.2498 574.471 46.3988 580.201 49.7238 581.852L49.7218 581.85Z" fill="#171717"/>
</g>
<g opacity="0.1">
<path d="M425.152 552.442C412.622 559.48 413.688 578.827 418.829 590.083C425.424 604.524 440.884 612.329 455.168 617.289C471.168 622.844 488.191 625.769 504.961 627.807C521.865 629.931 538.939 630.358 555.928 629.082C565.511 628.401 575.041 627.1 584.456 625.187C593.748 623.216 604.346 620.487 612.419 615.432C613.677 614.648 614.649 613.48 615.191 612.1C615.733 610.721 615.817 609.203 615.429 607.772C615.042 606.342 614.204 605.074 613.04 604.156C611.875 603.239 610.446 602.721 608.965 602.679C599.457 602.298 589.398 604.357 579.913 605.373C570.702 606.36 561.482 607.273 552.221 607.614C534.04 608.28 515.754 607.714 497.766 604.842C488.597 603.379 479.509 601.443 470.54 599.042C463.024 597.028 455.426 595.007 448.576 591.223C442.528 587.882 437.161 583.223 433.82 577.111C430.068 570.25 430.467 564.871 431.556 557.362C432.081 553.743 428.749 550.418 425.156 552.439L425.152 552.442Z" fill="#171717"/>
</g>
</g>
<defs>
<clipPath id="clip0_435_1383">
<rect width="886" height="875" fill="white" transform="translate(37 43)"/>
</clipPath>
</defs>
</svg>
