<?xml version="1.0" standalone="no"?>
<!DOCTYPE svg PUBLIC "-//W3C//DTD SVG 20010904//EN"
 "http://www.w3.org/TR/2001/REC-SVG-20010904/DTD/svg10.dtd">
<svg version="1.0" xmlns="http://www.w3.org/2000/svg"
 width="260.000000pt" height="260.000000pt" viewBox="0 0 260.000000 260.000000"
 preserveAspectRatio="xMidYMid meet">
<metadata>
Created by potrace 1.14, written by Peter Selinger 2001-2017
</metadata>
<g transform="translate(0.000000,260.000000) scale(0.100000,-0.100000)"
fill="#000000" stroke="none">
<path d="M1660 2209 c-145 -20 -240 -87 -346 -240 -28 -41 -93 -135 -145 -209
-53 -74 -116 -164 -141 -200 -25 -36 -132 -189 -238 -340 -106 -151 -216 -309
-244 -350 -28 -41 -53 -77 -56 -80 -3 -3 -63 -88 -134 -188 -117 -167 -127
-185 -113 -200 21 -21 29 -13 107 102 l65 96 325 -3 325 -2 1 -130 c2 -187 0
-177 27 -173 22 3 22 5 23 153 0 122 3 150 15 152 8 1 82 4 164 7 83 2 159 7
170 11 19 6 20 2 19 -148 -2 -164 3 -190 33 -171 16 10 18 28 17 171 l0 161
75 31 c262 107 439 301 515 565 28 94 35 156 35 317 l1 107 93 22 c152 37 154
58 7 96 -51 12 -94 25 -96 27 -2 2 -9 30 -15 62 -42 227 -260 385 -489 354z
m125 -54 c137 -19 261 -130 305 -271 29 -96 27 -472 -4 -613 -50 -227 -229
-444 -449 -546 -125 -58 -178 -67 -397 -72 l-205 -4 54 30 c152 86 259 217
312 381 23 73 34 231 19 295 -5 22 -11 54 -14 70 -13 71 -103 225 -169 285
-11 11 -17 25 -14 32 10 28 193 283 224 313 18 17 55 44 83 59 48 26 159 56
190 51 8 -1 38 -6 65 -10z m431 -436 c3 -5 -1 -9 -10 -9 -8 0 -21 -3 -30 -6
-11 -4 -16 0 -16 14 0 15 5 18 25 14 14 -2 28 -8 31 -13z m-902 -202 c67 -141
81 -308 38 -445 -64 -200 -244 -364 -449 -407 -65 -14 -443 -22 -443 -10 0 3
163 237 362 522 l362 516 48 -52 c26 -29 63 -85 82 -124z"/>
<path d="M1700 1785 c-15 -18 -5 -35 21 -35 12 0 19 7 19 19 0 24 -25 34 -40
16z"/>
</g>
</svg>
