<?xml version="1.0" standalone="no"?>
<!DOCTYPE svg PUBLIC "-//W3C//DTD SVG 20010904//EN"
 "http://www.w3.org/TR/2001/REC-SVG-20010904/DTD/svg10.dtd">
<svg version="1.0" xmlns="http://www.w3.org/2000/svg"
 width="160.000000pt" height="160.000000pt" viewBox="0 0 160.000000 160.000000"
 preserveAspectRatio="xMidYMid meet">
<metadata>
Created by potrace 1.14, written by Peter Selinger 2001-2017
</metadata>
<g transform="translate(0.000000,160.000000) scale(0.100000,-0.100000)"
fill="#000000" stroke="none">
<path d="M0 800 l0 -800 800 0 800 0 0 800 0 800 -800 0 -800 0 0 -800z m1135
421 c73 -33 127 -100 143 -178 7 -36 11 -39 65 -53 56 -14 74 -34 40 -44 -10
-3 -37 -10 -60 -16 l-43 -11 0 -87 c0 -48 -5 -107 -11 -131 -34 -151 -168
-294 -321 -345 -16 -5 -18 -19 -18 -101 0 -78 -3 -95 -15 -95 -12 0 -15 17
-15 91 l0 92 -37 -7 c-21 -3 -66 -6 -100 -6 l-63 0 0 -85 c0 -69 -3 -85 -15
-85 -12 0 -15 16 -15 85 l0 85 -182 0 -183 0 -38 -55 c-34 -50 -67 -71 -67
-45 0 20 651 939 679 960 75 53 180 66 256 31z"/>
<path d="M966 1195 c-60 -21 -84 -43 -149 -137 l-60 -86 36 -43 c53 -61 79
-138 79 -229 0 -126 -52 -226 -156 -302 l-41 -30 122 4 c115 4 125 6 195 41
49 24 92 55 124 89 107 113 134 194 134 398 0 156 -11 192 -78 252 -62 56
-131 70 -206 43z m82 -202 c-4 -22 -22 -20 -26 1 -2 10 3 16 13 16 10 0 15 -7
13 -17z"/>
<path d="M539 663 c-107 -152 -196 -281 -198 -286 -2 -5 51 -7 130 -5 121 3
139 6 184 30 62 32 129 103 158 166 34 73 31 199 -5 273 -15 30 -38 65 -51 77
l-24 22 -194 -277z"/>
</g>
</svg>
